<svg xmlns="http://www.w3.org/2000/svg" viewBox="0 0 64 64" width="64" height="64">
  <!-- Background circle -->
  <circle cx="32" cy="32" r="30" fill="#1e1e1e" stroke="#4CAF50" stroke-width="2"/>

  <!-- Outer ear shape -->
  <path d="M 40 12
           C 52 14, 54 28, 52 38
           C 50 48, 44 54, 36 54
           C 32 54, 28 52, 26 48
           C 24 44, 26 40, 28 38
           C 30 36, 32 38, 30 42
           C 28 46, 32 48, 36 46
           C 42 44, 44 36, 44 28
           C 44 20, 38 14, 32 14
           C 26 14, 20 20, 20 30
           C 20 40, 24 46, 22 48"
        fill="none"
        stroke="#4CAF50"
        stroke-width="3"
        stroke-linecap="round"/>

  <!-- Inner ear detail -->
  <path d="M 36 22
           C 42 24, 42 32, 40 36
           C 38 40, 34 42, 32 40"
        fill="none"
        stroke="#4CAF50"
        stroke-width="2.5"
        stroke-linecap="round"/>

  <!-- Sound waves -->
  <path d="M 14 26 C 10 30, 10 34, 14 38" fill="none" stroke="#4CAF50" stroke-width="2" stroke-linecap="round" opacity="0.6"/>
  <path d="M 10 22 C 4 28, 4 36, 10 42" fill="none" stroke="#4CAF50" stroke-width="2" stroke-linecap="round" opacity="0.4"/>
</svg>
